<svg width="360" height="240" viewBox="0 0 360 240" xmlns="http://www.w3.org/2000/svg" role="img" aria-labelledby="qcFeedbackAfterTitle qcFeedbackAfterDesc">
  <title id="qcFeedbackAfterTitle">Quality Coach Companion - Feedback Prompt</title>
  <desc id="qcFeedbackAfterDesc">Illustration of the chat widget after the assistant response with the feedback chip visible.</desc>
  <defs>
    <linearGradient id="bg2" x1="0%" y1="0%" x2="0%" y2="100%">
      <stop offset="0%" stop-color="#fdf2f8" />
      <stop offset="100%" stop-color="#e0f2fe" />
    </linearGradient>
    <filter id="card2" x="-10%" y="-10%" width="120%" height="120%" color-interpolation-filters="sRGB">
      <feDropShadow dx="0" dy="6" stdDeviation="8" flood-color="#0f172a" flood-opacity="0.08" />
    </filter>
  </defs>
  <rect width="360" height="240" rx="24" fill="url(#bg2)" />
  <rect x="32" y="28" width="296" height="120" rx="16" fill="#fff" filter="url(#card2)" />
  <rect x="56" y="52" width="248" height="12" rx="6" fill="#0f172a" opacity="0.82" />
  <rect x="56" y="74" width="212" height="10" rx="5" fill="#475569" opacity="0.7" />
  <rect x="56" y="94" width="168" height="10" rx="5" fill="#94a3b8" opacity="0.6" />
  <rect x="32" y="164" width="296" height="40" rx="20" fill="#ffffff" stroke="#cbd5f5" stroke-width="1.2" filter="url(#card2)" />
  <circle cx="56" cy="184" r="12" fill="#0ea5e9" opacity="0.9" />
  <text x="72" y="180" font-family="'Inter', 'Segoe UI', system-ui, sans-serif" font-size="11" fill="#0f172a" font-weight="600">What can we make better?</text>
  <text x="72" y="195" font-family="'Inter', 'Segoe UI', system-ui, sans-serif" font-size="10" fill="#475569">Share suggestions so we can improve the Companion.</text>
  <text x="298" y="187" font-family="'Inter', 'Segoe UI', system-ui, sans-serif" font-size="16" fill="#64748b">›</text>
  <rect x="32" y="214" width="220" height="14" rx="7" fill="#cbd5f5" />
  <rect x="260" y="210" width="68" height="22" rx="11" fill="#0ea5e9" />
  <text x="42" y="225" font-family="'Inter', 'Segoe UI', system-ui, sans-serif" font-size="10" fill="#0f172a" opacity="0.8">Feedback: How useful was that response?</text>
  <text x="274" y="225" font-family="'Inter', 'Segoe UI', system-ui, sans-serif" font-size="10" fill="#ffffff">Send</text>
  <text x="36" y="18" font-family="'Inter', 'Segoe UI', system-ui, sans-serif" font-size="12" fill="#475569" opacity="0.9">State B · Feedback pill visible · Input prefills feedback</text>
</svg>
